<svg width="48" height="48" viewBox="0 0 48 48" fill="none" xmlns="http://www.w3.org/2000/svg">
<rect x="4" y="4" width="40" height="40" rx="20" fill="#2AB930"/>
<path fill-rule="evenodd" clip-rule="evenodd" d="M34 20C34 18.3431 32.6569 17 31 17H17C15.3431 17 14 18.3431 14 20V28C14 29.6569 15.3431 31 17 31H31C32.6569 31 34 29.6569 34 28V20ZM23 19H17C16.4477 19 16 19.4477 16 20V23H23V19ZM25 19H31C31.5523 19 32 19.4477 32 20V23H25V19ZM32 25V28C32 28.5523 31.5523 29 31 29H25V25H32ZM23 29H17C16.4477 29 16 28.5523 16 28V25H23V29Z" fill="#C5F2C7"/>
</svg>
