<svg width="48" height="48" viewBox="0 0 48 48" fill="none" xmlns="http://www.w3.org/2000/svg">
<rect x="4" y="4" width="40" height="40" rx="20" fill="#9A0FBF"/>
<path d="M20 21H18V27H20V21Z" fill="#ECB9F9"/>
<path fill-rule="evenodd" clip-rule="evenodd" d="M14 20C14 18.3431 15.3431 17 17 17H31C32.6569 17 34 18.3431 34 20V28C34 29.6569 32.6569 31 31 31H17C15.3431 31 14 29.6569 14 28V20ZM17 19H31C31.5523 19 32 19.4477 32 20V28C32 28.5523 31.5523 29 31 29H17C16.4477 29 16 28.5523 16 28V20C16 19.4477 16.4477 19 17 19Z" fill="#ECB9F9"/>
</svg>
