<svg width="48" height="48" viewBox="0 0 48 48" fill="none" xmlns="http://www.w3.org/2000/svg">
<rect opacity="0.5" x="4" y="4" width="40" height="40" rx="20" fill="#C5F2C7"/>
<path fill-rule="evenodd" clip-rule="evenodd" d="M19 15C20.8638 15 22.4299 16.2748 22.874 18H31V20H22.874C22.4299 21.7252 20.8638 23 19 23C16.7909 23 15 21.2091 15 19C15 16.7909 16.7909 15 19 15ZM19 21C20.1046 21 21 20.1046 21 19C21 17.8954 20.1046 17 19 17C17.8954 17 17 17.8954 17 19C17 20.1046 17.8954 21 19 21Z" fill="#1F8B24"/>
<path fill-rule="evenodd" clip-rule="evenodd" d="M29 32C27.1362 32 25.5701 30.7252 25.126 29H17V27H25.126C25.5701 25.2748 27.1362 24 29 24C31.2091 24 33 25.7909 33 28C33 30.2091 31.2091 32 29 32ZM29 30C30.1046 30 31 29.1046 31 28C31 26.8954 30.1046 26 29 26C27.8954 26 27 26.8954 27 28C27 29.1046 27.8954 30 29 30Z" fill="#1F8B24"/>
</svg>
