<svg width="48" height="48" viewBox="0 0 48 48" fill="none" xmlns="http://www.w3.org/2000/svg">
<rect opacity="0.5" x="4" y="4" width="40" height="40" rx="20" fill="#ECB9F9"/>
<path fill-rule="evenodd" clip-rule="evenodd" d="M16 21C16 23.9611 17.6088 26.5465 20 27.9297V27.9999C20 30.2091 21.7909 31.9999 24 31.9999C26.2091 31.9999 28 30.2091 28 27.9999V27.9297C30.3912 26.5465 32 23.9611 32 21C32 16.5817 28.4183 13 24 13C19.5817 13 16 16.5817 16 21ZM28 25.4722C29.2275 24.3736 30 22.777 30 21C30 17.6863 27.3137 15 24 15C20.6863 15 18 17.6863 18 21C18 22.777 18.7725 24.3736 20 25.4722L22 25.4713V28C22 29.1045 22.8954 29.9999 24 29.9999C25.1045 29.9999 26 29.1045 26 27.9999V25.4713L28 25.4722Z" fill="#730C8F"/>
<path d="M22 33.0064V33C22.5883 33.3403 23.2714 33.5351 24 33.5351C24.7286 33.5351 25.4117 33.3403 26 33V33.0064C26 34.111 25.1046 35.0064 24 35.0064C22.8954 35.0064 22 34.111 22 33.0064Z" fill="#730C8F"/>
</svg>
