<svg width="48" height="48" viewBox="0 0 48 48" fill="none" xmlns="http://www.w3.org/2000/svg">
<rect x="4" y="4" width="40" height="40" rx="20" fill="#1672EC"/>
<path fill-rule="evenodd" clip-rule="evenodd" d="M29 17H19C18.4477 17 18 17.4477 18 18V30C18 30.5523 18.4477 31 19 31H29C29.5523 31 30 30.5523 30 30V18C30 17.4477 29.5523 17 29 17ZM19 15C17.3431 15 16 16.3431 16 18V30C16 31.6569 17.3431 33 19 33H29C30.6569 33 32 31.6569 32 30V18C32 16.3431 30.6569 15 29 15H19Z" fill="#C5DCFA"/>
<path d="M20 19H28V21H20V19Z" fill="#C5DCFA"/>
<path d="M20 23H28V25H20V23Z" fill="#C5DCFA"/>
<path d="M20 27H25V29H20V27Z" fill="#C5DCFA"/>
</svg>
