<svg width="48" height="48" viewBox="0 0 48 48" fill="none" xmlns="http://www.w3.org/2000/svg">
<rect opacity="0.5" x="4" y="4" width="40" height="40" rx="20" fill="#C5DCFA"/>
<path fill-rule="evenodd" clip-rule="evenodd" d="M22 19C22.5523 19 23 19.4477 23 20V28C23 28.5523 22.5523 29 22 29H18C17.4477 29 17 28.5523 17 28V20C17 19.4477 17.4477 19 18 19H22ZM19 21H21V27H19V21Z" fill="#0F56B3"/>
<path d="M30 19C30.5523 19 31 19.4477 31 20C31 20.5523 30.5523 21 30 21H26C25.4477 21 25 20.5523 25 20C25 19.4477 25.4477 19 26 19H30Z" fill="#0F56B3"/>
<path d="M30 23C30.5523 23 31 23.4477 31 24C31 24.5523 30.5523 25 30 25H26C25.4477 25 25 24.5523 25 24C25 23.4477 25.4477 23 26 23H30Z" fill="#0F56B3"/>
<path d="M31 28C31 27.4477 30.5523 27 30 27H26C25.4477 27 25 27.4477 25 28C25 28.5523 25.4477 29 26 29H30C30.5523 29 31 28.5523 31 28Z" fill="#0F56B3"/>
<path fill-rule="evenodd" clip-rule="evenodd" d="M32 15C33.6569 15 35 16.3431 35 18V30C35 31.6569 33.6569 33 32 33H16C14.3431 33 13 31.6569 13 30V18C13 16.3431 14.3431 15 16 15H32ZM16 17H32C32.5523 17 33 17.4477 33 18V30C33 30.5523 32.5523 31 32 31H16C15.4477 31 15 30.5523 15 30V18C15 17.4477 15.4477 17 16 17Z" fill="#0F56B3"/>
</svg>
