<svg width="48" height="48" viewBox="0 0 48 48" fill="none" xmlns="http://www.w3.org/2000/svg">
<rect x="4" y="4" width="40" height="40" rx="20" fill="#ED9526"/>
<path fill-rule="evenodd" clip-rule="evenodd" d="M21 18H27C27.5523 18 28 18.4477 28 19V29C28 29.5523 27.5523 30 27 30H21C20.4477 30 20 29.5523 20 29V19C20 18.4477 20.4477 18 21 18ZM27 16C28.6569 16 30 17.3431 30 19V29C30 30.6569 28.6569 32 27 32H21C19.3431 32 18 30.6569 18 29V19C18 17.3431 19.3431 16 21 16H27Z" fill="#FBE5C9"/>
<path d="M34 18C34 17.4477 33.5523 17 33 17C32.4477 17 32 17.4477 32 18V30C32 30.5523 32.4477 31 33 31C33.5523 31 34 30.5523 34 30V18Z" fill="#FBE5C9"/>
<path d="M16 18C16 17.4477 15.5523 17 15 17C14.4477 17 14 17.4477 14 18V30C14 30.5523 14.4477 31 15 31C15.5523 31 16 30.5523 16 30V18Z" fill="#FBE5C9"/>
</svg>
