<svg width="113" height="40" viewBox="0 0 113 40" fill="none" xmlns="http://www.w3.org/2000/svg">
<path d="M2.87933 20.4369L7.82303 20.1272C7.93009 20.9301 8.14802 21.5419 8.47684 21.9625C9.01212 22.643 9.77681 22.9833 10.7709 22.9833C11.5126 22.9833 12.0823 22.8113 12.48 22.4671C12.8853 22.1154 13.0879 21.7101 13.0879 21.2513C13.0879 20.8154 12.8967 20.4254 12.5144 20.0813C12.132 19.7372 11.245 19.4122 9.85328 19.1063C7.57451 18.594 5.94955 17.9134 4.9784 17.0646C3.9996 16.2158 3.5102 15.1338 3.5102 13.8185C3.5102 12.9544 3.75872 12.1401 4.25577 11.3754C4.76046 10.603 5.51368 9.99893 6.51542 9.56306C7.5248 9.11954 8.90506 8.89778 10.6562 8.89778C12.805 8.89778 14.4414 9.29924 15.5655 10.1022C16.6972 10.8974 17.3701 12.1668 17.5843 13.9103L12.6864 14.1971C12.5564 13.44 12.2812 12.8894 11.8606 12.5453C11.4476 12.2012 10.8741 12.0292 10.14 12.0292C9.53593 12.0292 9.08094 12.1592 8.77507 12.4192C8.46919 12.6715 8.31625 12.9812 8.31625 13.3483C8.31625 13.6159 8.44243 13.8568 8.69477 14.0709C8.93947 14.2926 9.52064 14.4991 10.4383 14.6903C12.7094 15.1797 14.3343 15.6767 15.3131 16.1814C16.2996 16.6785 17.0146 17.2979 17.4581 18.0396C17.9092 18.7814 18.1348 19.611 18.1348 20.5287C18.1348 21.6069 17.8366 22.601 17.2401 23.5109C16.6437 24.4209 15.8102 25.113 14.7396 25.5871C13.6691 26.0535 12.3194 26.2868 10.6906 26.2868C7.83068 26.2868 5.85014 25.7362 4.74899 24.635C3.64784 23.5339 3.02462 22.1345 2.87933 20.4369ZM31.9565 19.1293L36.5103 20.5057C36.2044 21.7828 35.7226 22.8495 35.065 23.7059C34.4074 24.5624 33.5891 25.2085 32.6104 25.6444C31.6392 26.0803 30.4004 26.2982 28.894 26.2982C27.0664 26.2982 25.5714 26.0344 24.4091 25.5068C23.2544 24.9715 22.2565 24.0348 21.4153 22.6966C20.5742 21.3584 20.1536 19.6455 20.1536 17.5579C20.1536 14.7744 20.8915 12.6371 22.3674 11.146C23.8509 9.64718 25.9461 8.89778 28.6531 8.89778C30.7713 8.89778 32.4345 9.32601 33.6427 10.1825C34.8585 11.0389 35.7609 12.3542 36.3497 14.1282L31.7615 15.1491C31.601 14.6368 31.4327 14.2621 31.2569 14.025C30.9663 13.6274 30.6107 13.3215 30.1901 13.1074C29.7695 12.8933 29.2993 12.7862 28.7793 12.7862C27.6017 12.7862 26.6993 13.2603 26.0723 14.2085C25.5982 14.912 25.3611 16.017 25.3611 17.5234C25.3611 19.3893 25.6441 20.6701 26.2099 21.366C26.7758 22.0542 27.5711 22.3983 28.5957 22.3983C29.5898 22.3983 30.3392 22.1192 30.8439 21.561C31.3563 21.0028 31.7271 20.1922 31.9565 19.1293Z" fill="black"/>
<path d="M39.2517 9.18454H44.4592V26H39.2517V9.18454ZM47.017 9.18454H62.8117V13.3368H57.5124V26H52.3163V13.3368H47.017V9.18454Z" fill="#007AFF"/>
<path d="M0.985313 19.5729L0.74545 19.5879L0.765944 19.8274C0.91548 21.5746 1.55946 23.0275 2.70355 24.1716C3.87355 25.3416 5.93619 25.8921 8.81127 25.8921C10.4605 25.8921 11.8447 25.6563 12.9541 25.1729L12.9554 25.1723C14.064 24.6814 14.9341 23.9609 15.5573 23.0102C16.1786 22.0623 16.4904 21.0235 16.4904 19.8991C16.4904 18.9413 16.2544 18.0692 15.7799 17.2887C15.308 16.5 14.5549 15.8539 13.5405 15.3426C12.5323 14.823 10.8818 14.321 8.60841 13.8311L8.60684 13.8308C8.15369 13.7364 7.7903 13.6395 7.51348 13.5412C7.2312 13.4409 7.06041 13.3463 6.97319 13.2673L6.97327 13.2672L6.96742 13.2622C6.75413 13.0813 6.67183 12.9014 6.67183 12.7187C6.67183 12.428 6.78849 12.1826 7.04523 11.9708L7.04524 11.9709L7.04787 11.9686C7.29438 11.7591 7.6852 11.6346 8.2607 11.6346C8.9599 11.6346 9.47334 11.7983 9.83086 12.0963L9.83085 12.0963L9.83249 12.0976C10.1942 12.3935 10.4512 12.8832 10.5756 13.6073L10.6111 13.8143L10.8208 13.802L15.7187 13.5153L15.9686 13.5006L15.9381 13.2521C15.7183 11.4621 15.0215 10.1242 13.822 9.28095C12.6415 8.43808 10.9488 8.03334 8.77686 8.03334C7.01041 8.03334 5.59349 8.25636 4.54197 8.71829C3.50625 9.16902 2.71382 9.8001 2.17979 10.6173L2.17948 10.6178C1.6591 11.4184 1.39595 12.2769 1.39595 13.189C1.39595 14.571 1.9139 15.7181 2.94482 16.6123C3.96067 17.5 5.63207 18.1911 7.92241 18.706L7.92352 18.7063C8.61368 18.8579 9.17223 19.013 9.6022 19.1705C10.0371 19.3299 10.3205 19.4847 10.4779 19.6264C10.8205 19.9347 10.9737 20.2646 10.9737 20.6218C10.9737 21.0007 10.8102 21.3447 10.4467 21.6602C10.1064 21.9546 9.59964 22.1189 8.89157 22.1189C7.95762 22.1189 7.26617 21.8029 6.7824 21.188C6.48944 20.8132 6.2807 20.2477 6.17655 19.4666L6.1476 19.2495L5.92901 19.2632L0.985313 19.5729ZM30.1452 18.2749L29.9013 18.2012L29.8476 18.4502C29.6234 19.489 29.266 20.2557 28.7915 20.7726L28.7903 20.7739C28.3433 21.2684 27.6665 21.5339 26.7164 21.5339C25.7504 21.5339 25.0266 21.2129 24.5124 20.5877C24.0023 19.9599 23.7167 18.7535 23.7167 16.8939C23.7167 15.4025 23.9532 14.3551 24.3878 13.7103L24.3889 13.7086C24.9706 12.8289 25.7978 12.3916 26.8999 12.3916C27.3867 12.3916 27.8199 12.4915 28.2042 12.6872C28.5905 12.8838 28.9181 13.1649 29.1878 13.5341L29.1889 13.5354C29.3412 13.7407 29.5 14.0855 29.6581 14.5898L29.7226 14.7957L29.9332 14.7489L34.5214 13.728L34.7752 13.6715L34.6933 13.4247C34.0928 11.6155 33.1652 10.2532 31.8989 9.36108C30.6373 8.46686 28.9203 8.03334 26.7738 8.03334C24.0227 8.03334 21.8603 8.7961 20.3211 10.3512L20.488 10.5164L20.3211 10.3512C18.7889 11.8992 18.0394 14.1039 18.0394 16.9283C18.0394 19.0463 18.466 20.8062 19.3371 22.192C20.1966 23.5594 21.2262 24.5319 22.4309 25.0904L22.4326 25.0911C23.6357 25.6373 25.1669 25.9036 27.0146 25.9036C28.5413 25.9036 29.8158 25.6831 30.8269 25.2293C31.8416 24.7774 32.6908 24.1066 33.372 23.2195C34.0536 22.3318 34.5474 21.2332 34.8594 19.9309L34.911 19.7154L34.6989 19.6513L30.1452 18.2749Z" fill="#323232" stroke="black" stroke-width="0.469823"/>
<path d="M7.32471 32.1933L9.51049 32.854C9.36367 33.467 9.13243 33.979 8.81677 34.3901C8.50111 34.8012 8.10836 35.1113 7.63854 35.3206C7.17239 35.5298 6.57777 35.6344 5.85468 35.6344C4.97743 35.6344 4.25985 35.5078 3.70193 35.2545C3.14769 34.9976 2.66869 34.5479 2.26493 33.9056C1.86118 33.2633 1.6593 32.4411 1.6593 31.439C1.6593 30.103 2.0135 29.0771 2.72191 28.3613C3.43399 27.6419 4.4397 27.2822 5.73906 27.2822C6.75578 27.2822 7.55412 27.4877 8.13406 27.8988C8.71766 28.3099 9.15078 28.9412 9.43341 29.7928L7.23111 30.2828C7.15403 30.0369 7.07328 29.857 6.98886 29.7432C6.84938 29.5524 6.6787 29.4056 6.47683 29.3028C6.27495 29.2 6.04921 29.1486 5.79962 29.1486C5.23436 29.1486 4.80125 29.3762 4.50026 29.8313C4.27269 30.169 4.15891 30.6994 4.15891 31.4225C4.15891 32.3181 4.29472 32.9329 4.56633 33.2669C4.83795 33.5973 5.21968 33.7624 5.71153 33.7624C6.18869 33.7624 6.5484 33.6285 6.79065 33.3605C7.03658 33.0926 7.2146 32.7035 7.32471 32.1933ZM10.9772 31.461C10.9772 30.1433 11.3443 29.1174 12.0784 28.3833C12.8125 27.6492 13.8347 27.2822 15.1451 27.2822C16.4885 27.2822 17.5236 27.6437 18.2503 28.3668C18.9771 29.0862 19.3404 30.0956 19.3404 31.395C19.3404 32.3383 19.1808 33.1128 18.8614 33.7184C18.5458 34.3204 18.087 34.7902 17.485 35.1279C16.8867 35.4619 16.1398 35.6289 15.2442 35.6289C14.3339 35.6289 13.5796 35.4839 12.9813 35.1939C12.3867 34.904 11.904 34.4452 11.5333 33.8175C11.1626 33.1898 10.9772 32.4044 10.9772 31.461ZM13.4713 31.472C13.4713 32.2869 13.6218 32.8723 13.9228 33.2284C14.2274 33.5844 14.6404 33.7624 15.1616 33.7624C15.6975 33.7624 16.1122 33.5881 16.4059 33.2394C16.6995 32.8907 16.8463 32.2649 16.8463 31.3619C16.8463 30.6021 16.6922 30.0479 16.3839 29.6992C16.0792 29.3468 15.6644 29.1706 15.1396 29.1706C14.6367 29.1706 14.233 29.3487 13.9283 29.7047C13.6236 30.0607 13.4713 30.6499 13.4713 31.472ZM21.2642 27.4198H23.5931L26.6323 31.885V27.4198H28.9832V35.4912H26.6323L23.6096 31.0591V35.4912H21.2642V27.4198ZM31.2207 27.4198H33.5497L36.5888 31.885V27.4198H38.9398V35.4912H36.5888L33.5662 31.0591V35.4912H31.2207V27.4198ZM41.1553 27.4198H47.8393V29.1431H43.6549V30.426H47.5365V32.0722H43.6549V33.6633H47.9604V35.4912H41.1553V27.4198ZM55.2467 32.1933L57.4325 32.854C57.2857 33.467 57.0544 33.979 56.7388 34.3901C56.4231 34.8012 56.0304 35.1113 55.5605 35.3206C55.0944 35.5298 54.4998 35.6344 53.7767 35.6344C52.8994 35.6344 52.1818 35.5078 51.6239 35.2545C51.0697 34.9976 50.5907 34.5479 50.1869 33.9056C49.7832 33.2633 49.5813 32.4411 49.5813 31.439C49.5813 30.103 49.9355 29.0771 50.6439 28.3613C51.356 27.6419 52.3617 27.2822 53.6611 27.2822C54.6778 27.2822 55.4761 27.4877 56.056 27.8988C56.6397 28.3099 57.0728 28.9412 57.3554 29.7928L55.1531 30.2828C55.076 30.0369 54.9953 29.857 54.9109 29.7432C54.7714 29.5524 54.6007 29.4056 54.3988 29.3028C54.1969 29.2 53.9712 29.1486 53.7216 29.1486C53.1564 29.1486 52.7232 29.3762 52.4223 29.8313C52.1947 30.169 52.0809 30.6994 52.0809 31.4225C52.0809 32.3181 52.2167 32.9329 52.4883 33.2669C52.7599 33.5973 53.1417 33.7624 53.6335 33.7624C54.1107 33.7624 54.4704 33.6285 54.7126 33.3605C54.9586 33.0926 55.1366 32.7035 55.2467 32.1933ZM58.646 27.4198H66.2274V29.4129H63.6837V35.4912H61.1896V29.4129H58.646V27.4198Z" fill="black"/>
<path d="M95.7536 21.9787L101.871 23.8278C101.46 25.5434 100.813 26.9765 99.9296 28.1271C99.0461 29.2777 97.9469 30.1458 96.6319 30.7313C95.3273 31.3169 93.663 31.6097 91.6392 31.6097C89.184 31.6097 87.1756 31.2553 85.6141 30.5464C84.0629 29.8273 82.7222 28.5689 81.5922 26.7711C80.4621 24.9733 79.8971 22.6721 79.8971 19.8676C79.8971 16.1282 80.8885 13.2569 82.8712 11.2536C84.8642 9.2401 87.679 8.23334 91.3156 8.23334C94.1613 8.23334 96.3957 8.80863 98.0188 9.95921C99.6522 11.1098 100.864 12.8768 101.655 15.2601L95.4916 16.6316C95.2759 15.9433 95.0499 15.4399 94.8136 15.1214C94.4232 14.5872 93.9455 14.1763 93.3805 13.8887C92.8155 13.601 92.1837 13.4572 91.4851 13.4572C89.9031 13.4572 88.6909 14.0941 87.8485 15.368C87.2115 16.3131 86.8931 17.7976 86.8931 19.8214C86.8931 22.328 87.2732 24.0487 88.0334 24.9836C88.7936 25.9081 89.862 26.3704 91.2386 26.3704C92.5741 26.3704 93.5808 25.9955 94.2589 25.2455C94.9472 24.4956 95.4454 23.4067 95.7536 21.9787Z" fill="black"/>
<path d="M97.4055 22.3725L95.7597 21.7414L91.0259 23.45C91.4368 25.1656 92.084 26.5987 92.9675 27.7493C93.851 28.8998 94.9502 29.7679 96.2652 30.3535C97.5699 30.939 99.2341 31.2318 101.258 31.2318C103.713 31.2318 105.722 30.8774 107.283 30.1686C108.834 29.4494 110.175 28.191 111.305 26.3932C112.435 24.5954 113 22.2943 113 19.4897C113 15.7503 112.009 12.879 110.026 10.8757C108.033 8.86223 105.218 7.85547 101.581 7.85547C98.7359 7.85547 96.5015 8.43076 94.8783 9.58134C93.2449 10.7319 92.0327 12.4989 91.2417 14.8822L95.4442 16.6919L97.4055 16.2537C97.6212 15.5654 97.8472 15.062 98.0835 14.7436C98.4739 14.2094 98.9516 13.7984 99.5166 13.5108C100.082 13.2231 100.713 13.0793 101.412 13.0793C102.994 13.0793 104.206 13.7163 105.049 14.9901C105.686 15.9352 106.004 17.4197 106.004 19.4435C106.004 21.9501 105.624 23.6708 104.864 24.6057C104.104 25.5303 103.035 25.9926 101.659 25.9926C100.323 25.9926 99.3163 25.6176 98.6383 24.8677C97.95 24.1177 97.7137 23.8005 97.4055 22.3725Z" fill="#007AFF"/>
<path d="M91.0259 18.5855H103.649V20.479H91.0259V18.5855Z" fill="black"/>
</svg>
